<svg xmlns="http://www.w3.org/2000/svg" viewBox="0 0 116.53 27.71"><defs><style>.cls-1{fill:#2bb673;}.cls-2{fill:#00a79d;}</style></defs><title>logo1_10</title><g id="Layer_2" data-name="Layer 2"><g id="logo"><path class="cls-1" d="M17.23,15.29a5.0173,5.0173,0,0,1-9.62,0H0L12.42,27.71,24.84,15.29Z"/><path class="cls-1" d="M12.43,0,0,12.42H7.61a5.0253,5.0253,0,0,1,4.81-3.58h.01a5.0131,5.0131,0,0,1,4.8,3.58h7.61Z"/><path class="cls-2" d="M24.84,15.29,12.42,27.71V18.88a5.025,5.025,0,0,0,4.81-3.59Z"/><path class="cls-1" d="M12.42,18.88v8.83L0,15.29H7.61A5.025,5.025,0,0,0,12.42,18.88Z"/><path class="cls-2" d="M12.43,0V8.84h-.01a5.0253,5.0253,0,0,0-4.81,3.58H0Z"/><path class="cls-1" d="M24.84,12.42H17.23a5.0131,5.0131,0,0,0-4.8-3.58V0Z"/><path class="cls-1" d="M39.92,6.08H32.6V21.42h3.67V15.63h3.65a4.775,4.775,0,0,0,0-9.55Zm-.13,6.4H36.18V9.23h3.61a1.6011,1.6011,0,0,1,1.45,1.6A1.6429,1.6429,0,0,1,39.79,12.48Z"/><path class="cls-1" d="M55.91,14.87a4.85,4.85,0,0,0,2.17-4.02A4.7906,4.7906,0,0,0,53.3,6.08H45.99V21.42h3.67V15.63h2.49l2.43,5.79h3.93Zm-2.74-2.39h-3.6V9.23h3.6a1.5849,1.5849,0,0,1,1.44,1.6A1.6336,1.6336,0,0,1,53.17,12.48Z"/><path class="cls-1" d="M67.15,6.08a7.755,7.755,0,1,0,7.74,7.77A7.7588,7.7588,0,0,0,67.15,6.08Zm0,11.76a4.005,4.005,0,1,1,3.99-3.99A4.014,4.014,0,0,1,67.15,17.84Z"/><path class="cls-1" d="M75.98,6.08V9.99H79.9V21.42h3.93V9.99h3.93V6.08Z"/><path class="cls-1" d="M93.21,18.1V15.41h5.31V12.09H93.21V9.4h6.31V6.08H89.28V21.42H99.72V18.1Z"/><path class="cls-1" d="M116.31,12.03h-8.78v3.6h4.81a4.0038,4.0038,0,1,1-1.56-5.28l3.49-1.99a7.7428,7.7428,0,1,0,2.26,5.47A8.1369,8.1369,0,0,0,116.31,12.03Z"/></g></g></svg>