<svg xmlns="http://www.w3.org/2000/svg" viewBox="0 0 116.53 27.71"><defs><style>.cls-1{fill:#fff;}</style></defs><title>logo20</title><g id="Layer_2" data-name="Layer 2"><g id="logo"><path class="cls-1" d="M12.42,18.87a5,5,0,0,1-4.8-3.58H0L12.42,27.71,24.84,15.29H17.22A5,5,0,0,1,12.42,18.87Z"/><path class="cls-1" d="M0,12.42H7.61a5,5,0,0,1,9.62,0h7.61L12.42,0Z"/><path class="cls-1" d="M39.91,6.08H32.6V21.42h3.67V15.63h3.64a4.78,4.78,0,0,0,0-9.55Zm-.13,6.4h-3.6V9.22h3.6a1.61,1.61,0,0,1,1.45,1.61A1.65,1.65,0,0,1,39.78,12.48Z"/><path class="cls-1" d="M58.07,10.85A4.79,4.79,0,0,0,53.3,6.08H46V21.42h3.66V15.63h2.5l2.43,5.79h3.93L55.9,14.87A4.85,4.85,0,0,0,58.07,10.85Zm-4.9,1.63h-3.6V9.22h3.6a1.59,1.59,0,0,1,1.43,1.61A1.63,1.63,0,0,1,53.17,12.48Z"/><path class="cls-1" d="M67.14,6.08a7.76,7.76,0,1,0,7.75,7.77A7.77,7.77,0,0,0,67.14,6.08Zm0,11.76a4,4,0,1,1,4-4A4,4,0,0,1,67.14,17.84Z"/><polygon class="cls-1" points="75.97 9.98 79.9 9.98 79.9 21.42 83.83 21.42 83.83 9.98 87.75 9.98 87.75 6.08 75.97 6.08 75.97 9.98"/><polygon class="cls-1" points="93.2 15.41 98.52 15.41 98.52 12.09 93.2 12.09 93.2 9.4 99.52 9.4 99.52 6.08 89.27 6.08 89.27 21.42 99.71 21.42 99.71 18.1 93.2 18.1 93.2 15.41"/><path class="cls-1" d="M116.31,12h-8.79v3.61h4.82a4,4,0,1,1-1.56-5.28l3.49-2a7.74,7.74,0,1,0,2.26,5.46A8.21,8.21,0,0,0,116.31,12Z"/></g></g></svg>