<svg xmlns="http://www.w3.org/2000/svg" viewBox="0 0 214.8568 209.9729"><defs><style>.cls-1{fill:#fff;}.cls-2{fill:#f9dbab;}.cls-3,.cls-4,.cls-5{fill:#d1d3d4;}.cls-3,.cls-4{stroke:#fff;stroke-miterlimit:10;}.cls-3{stroke-width:0.4542px;}.cls-4{stroke-width:0.539px;}.cls-6{fill:#b6b3b3;opacity:0.7;}.cls-7{fill:#00a79c;}.cls-8{fill:#29b574;}.cls-9{fill:#e6e7e8;opacity:0.25;}</style></defs><title>mail0</title><g id="Layer_2" data-name="Layer 2"><g id="MAIL"><path class="cls-1" d="M214.79,157.9077a6.8592,6.8592,0,0,1-.2.81c-.06.18-.14.36-.22.54a3.1689,3.1689,0,0,1-.21.41,3.4526,3.4526,0,0,1-.2.32,4.4566,4.4566,0,0,1-.71.85,4.81,4.81,0,0,1-.48.42,4.9157,4.9157,0,0,1-.53.36,3.5831,3.5831,0,0,1-.44.22,1.1134,1.1134,0,0,1-.25.11,3.3582,3.3582,0,0,1-.53.19l-166.15,47.63a5.2884,5.2884,0,0,1-6.54-3.63L8.26,101.2576l-.16-.54a.908.908,0,0,1,.1-.49c2.88-7.43,60.54-85.35,60.54-85.35a15.7584,15.7584,0,0,1,18.78-5.39s90.19,35.54,96.56,40.32a.92.92,0,0,1,.35.36l.15.54v.01l30.07,104.88A5.3436,5.3436,0,0,1,214.79,157.9077Z"/><path class="cls-2" d="M202.72,124.5064c0,.15-3.03,1.38-8.25,3.39-18.95,7.31-67.26,25.08-102.93,38.15-16.1,5.91-29.63,10.85-36.72,13.44a5.9262,5.9262,0,0,1-7.51-3.3l-.41-.99-23.05-55.64L.45,63.0664a5.93,5.93,0,0,1,3.35-7.8l3.7-1.42,45.96-17.69L146.39.3964a5.9368,5.9368,0,0,1,7.63,3.31c.98,2.42,2.25,5.57,3.75,9.28,5.59,13.84,14.32,35.47,22.62,56,0,.02.01.03.01.04C191.93,97.6064,202.6,124.0764,202.72,124.5064Z"/><path class="cls-1" d="M9.7319,52.6581,39.3031,171.47a5.9245,5.9245,0,0,0,6.934,4.3805c28.253-5.7648,154.5394-31.5824,154.4257-32.4493C200.5509,142.5473,176.44,41.92,170.4005,16.72a5.93,5.93,0,0,0-7.0536-4.407L14.2017,45.4354A5.9313,5.9313,0,0,0,9.7319,52.6581Z"/><circle class="cls-3" cx="38.0216" cy="65.6168" r="12.7285"/><path class="cls-3" d="M61.1688,45.85h43.224a4.11,4.11,0,0,1,4.11,4.11v0a4.11,4.11,0,0,1-4.11,4.11H61.1688a4.11,4.11,0,0,1-4.11-4.11v0a4.11,4.11,0,0,1,4.11-4.11Z" transform="translate(-8.45 17.9347) rotate(-11.7689)"/><path class="cls-4" d="M37.5786,84.69h111.25a2.5588,2.5588,0,0,1,2.5588,2.5588v0a2.5589,2.5589,0,0,1-2.5589,2.5589H37.5786A2.5589,2.5589,0,0,1,35.02,87.2492v0A2.5588,2.5588,0,0,1,37.5786,84.69Z" transform="translate(-15.8365 20.8444) rotate(-11.7689)"/><path class="cls-4" d="M41.533,98.484h111.25a2.5589,2.5589,0,0,1,2.5589,2.5589v0a2.5588,2.5588,0,0,1-2.5588,2.5588H41.533a2.5588,2.5588,0,0,1-2.5588-2.5588v0A2.5589,2.5589,0,0,1,41.533,98.484Z" transform="translate(-18.5668 21.9409) rotate(-11.7689)"/><path class="cls-1" d="M184.4241,50.17l30.2227,105.4234a5.2856,5.2856,0,0,1-3.6273,6.543L44.8722,209.7669a5.292,5.292,0,0,1-6.543-3.6273L8.1064,100.7162l101.5465,21.4255Z"/><rect class="cls-5" x="159.4171" y="156.0988" width="48.4391" height="7.6436" rx="3.8218" transform="translate(-36.96 56.7988) rotate(-15.9965)"/><path class="cls-5" d="M184.58,50.7077v.01L110,122.4976a.46.46,0,0,1-.35.14.3373.3373,0,0,1-.1-.01L8.27,101.2677l-.01-.01-.16-.54a.908.908,0,0,1,.1-.49h.01l101.29,21.37,74.58-71.79a.92.92,0,0,1,.35.36Z"/><path class="cls-6" d="M67.7869,99.832l20.7373,58.8514.0013-.0009a2.435,2.435,0,0,0,2.62,1.7136l20.3568-7.1985L156.3745,137.33c2.2451-.8787,2.7531-2.5724,2.1257-3.7983l-.8336-2.2575.0018-.0007L137.1353,74.0313a4.5414,4.5414,0,0,0-5.8138-2.74L121.0593,74.97l-3.216-8.9649a21.6122,21.6122,0,0,0-8.3184-10.7068,22.3994,22.3994,0,0,0-2.8775-1.6308,20.819,20.819,0,0,0-2.8665-1.1115,21.5382,21.5382,0,0,0-13.7761.3053A21.7934,21.7934,0,0,0,76.8618,80.705l3.216,8.965L70.949,92.9446l-.0005-.0013C65.2262,94.9957,67.7869,99.832,67.7869,99.832Zm46.3023-22.3613-8.1727,2.9319L87.0479,87.17l-3.216-8.965a14.3653,14.3653,0,0,1,19.6536-17.842c.3169.15.6259.3112.9326.488a14.25,14.25,0,0,1,6.173,6.9327c.0753.1722.1466.35.2131.529.0208.0615.0465.1222.069.1935Z"/><path class="cls-7" d="M66.55,74.61l3.216,8.9649L79.35,110.301l18.51-6.6391,22.4763-8.0613-9.5883-26.7248-3.216-8.965A21.6127,21.6127,0,0,0,99.2132,49.204a22.4033,22.4033,0,0,0-2.8774-1.6308,20.8324,20.8324,0,0,0-2.8666-1.1114,21.5372,21.5372,0,0,0-13.776.3052A21.7934,21.7934,0,0,0,66.55,74.61ZM82.1886,53.738a14.284,14.284,0,0,1,10.9852.53c.317.15.626.3112.9327.4881a14.2506,14.2506,0,0,1,6.173,6.9326c.0753.1723.1466.35.2131.5291.0208.0615.0465.1222.069.1934l3.216,8.9649,7.0879,19.7548L97.2692,96.0061l-13.45,4.8244L76.7363,81.075,73.52,72.11A14.3835,14.3835,0,0,1,82.1886,53.738Z"/><path class="cls-7" d="M148.1875,127.4286l-.83-2.25-20.53-57.24a4.5532,4.5532,0,0,0-5.82-2.74l-10.26,3.68-6.97,2.5-8.17,2.93-18.87,6.77-6.97,2.5-9.13,3.27c-3.02,1.08-3.73,2.94-3.73,4.45a5.78,5.78,0,0,0,.57,2.44l20.7,58.72a.4941.4941,0,0,0,.04.13,2.426,2.426,0,0,0,2.62,1.71l20.35-7.2,44.88-15.86c.1-.04.2-.08.31-.13C148.3576,130.1886,148.7875,128.5985,148.1875,127.4286Z"/><path class="cls-8" d="M148.2675,127.6585l-3.09,1.3-2.46-2.11-41.93,15.03-18.05,6.48.35.96-4.87,3.27a.4929.4929,0,0,1-.04-.13l-20.7-58.72a5.7813,5.7813,0,0,1-.57-2.44c0-1.51.71-3.37,3.73-4.45l9.13-3.27,6.97-2.5,18.87-6.77,8.17-2.93,6.97-2.5,10.26-3.68a4.5531,4.5531,0,0,1,5.82,2.74l20.53,57.24.83,2.25Z"/><circle class="cls-1" cx="100.8774" cy="107.1322" r="23.7915"/><path class="cls-7" d="M91.4958,104.8039a8.0447,8.0447,0,1,1,12.96,3.2563l3.426,9.552a3.055,3.055,0,1,1-5.7512,2.0628l-3.426-9.5521A8.0441,8.0441,0,0,1,91.4958,104.8039Z"/><path class="cls-7" d="M146.3775,131.1085c-.11.05-.21.09-.31.13l-44.88,15.86-20.35,7.2a2.4261,2.4261,0,0,1-2.62-1.71.4929.4929,0,0,1-.04-.13,2.6408,2.6408,0,0,1,.98-2.85s1.3-.47,3.53-1.28c3.87-1.4,10.53-3.81,18.09-6.54,18.28-6.61,41.79-15.08,43.68-15.67.19-.04.37-.08.55-.1a3.0043,3.0043,0,0,1,3.18,1.41C148.7875,128.5985,148.3576,130.1886,146.3775,131.1085Z"/><path class="cls-9" d="M100.7875,141.8785l-.01-.09-2.92-38.13-.59-7.65-1.66-21.7-18.87,6.77-3.22-8.97a14.3681,14.3681,0,0,1,19.66-17.84c.31.15.62.31.93.49a14.0213,14.0213,0,0,1,5.19,5.01l-.08-10.56a23.2565,23.2565,0,0,0-2.88-1.64,21.7932,21.7932,0,0,0-2.87-1.11,21.509,21.509,0,0,0-13.77.31,21.7971,21.7971,0,0,0-13.15,27.84l3.22,8.97-9.13,3.27c-3.02,1.08-3.73,2.94-3.73,4.45a5.7813,5.7813,0,0,0,.57,2.44l20.7,58.72a.4929.4929,0,0,0,.04.13,2.4261,2.4261,0,0,0,2.62,1.71l20.35-7.2Zm-.29-79.66c-.2-.54-.25-.67-.22-.53C100.3576,61.8585,100.4276,62.0384,100.4976,62.2185Z"/></g></g></svg>