<svg xmlns="http://www.w3.org/2000/svg" viewBox="0 0 562.45 467.28"><defs><style>.cls-1{isolation:isolate;}.cls-10,.cls-11,.cls-2{fill:none;stroke-linecap:round;stroke-linejoin:round;}.cls-2{stroke:#8ab2c6;stroke-width:5px;}.cls-3{fill:#8ab2c6;}.cls-4{fill:#e6e7e8;}.cls-5{fill:#fff;}.cls-6{fill:#f1f2f2;}.cls-7{fill:#29b574;}.cls-8{fill:#66c08c;}.cls-9{fill:#00a79c;}.cls-10,.cls-11{stroke:#00a79c;}.cls-10{stroke-width:3.82px;}.cls-11{stroke-width:2.39px;}.cls-12{fill:#bce1d4;opacity:0.5;}.cls-13{fill:#70bab4;}.cls-14{fill:#79c697;}.cls-15{fill:#010101;opacity:0.1;mix-blend-mode:multiply;}</style></defs><title>main-art0</title><g class="cls-1"><g id="Layer_2" data-name="Layer 2"><g id="MAIN"><line class="cls-2" x1="503.15" y1="417.2" x2="59.95" y2="161.18"/><polyline class="cls-2" points="373.54 342.43 373.54 378.1 392.4 388.99"/><polyline class="cls-2" points="355 331.73 394.16 331.73 420.33 347.97"/><ellipse class="cls-3" cx="392.86" cy="389.78" rx="8.12" ry="4.69"/><ellipse class="cls-3" cx="186.25" cy="371.85" rx="8.12" ry="4.69"/><ellipse class="cls-3" cx="420.33" cy="347.97" rx="8.12" ry="4.69"/><polyline class="cls-2" points="100.58 385.12 205.79 324.37 274.07 284.96"/><polyline class="cls-2" points="151.66 178.97 182.23 196.62 182.07 231.68"/><ellipse class="cls-3" cx="151.21" cy="178.97" rx="8.12" ry="4.69"/><ellipse class="cls-3" cx="121.09" cy="231.92" rx="8.12" ry="4.69"/><polyline class="cls-2" points="199.82 242.05 147.11 246.94 121.09 231.92"/><polyline class="cls-2" points="185.79 371.06 212.37 355.22 212.3 321.51"/><path class="cls-4" d="M119.92,159.21H0v14.72H0c0,9,5.85,18,17.56,24.83,23.42,13.71,61.39,13.71,84.8,0,12-7,17.84-16.31,17.54-25.53h0Z"/><ellipse class="cls-5" cx="59.96" cy="161.1" rx="59.96" ry="35.11"/><path class="cls-4" d="M119.92,142.59H0v14.73H0c0,9,5.85,18,17.56,24.82,23.42,13.72,61.39,13.72,84.8,0,12-7,17.84-16.3,17.54-25.52h0Z"/><path class="cls-5" d="M109.47,164.3a48.51,48.51,0,0,1-7.11,5,65.29,65.29,0,0,1-9.56,4.56c-23.25,8.93-54.79,7.41-75.24-4.56-20.23-11.86-23-30.07-8.24-43.64a47,47,0,0,1,8.24-6,63.24,63.24,0,0,1,7.87-3.88c23.4-9.69,56-8.39,76.93,3.88C123.1,131.8,125.47,150.63,109.47,164.3Z"/><path class="cls-6" d="M80.77,165.06,26.38,133.67c-3.05-1.77-2.67-4.85.86-6.89h0c3.53-2,8.86-2.25,11.92-.49l54.38,31.4c3,1.76,2.67,4.84-.86,6.88h0C89.16,166.61,83.82,166.83,80.77,165.06Z"/><path class="cls-4" d="M562.45,417.44H442.53v14.72h0c0,9,5.85,18,17.56,24.83,23.42,13.72,61.39,13.72,84.8,0,12-7,17.84-16.3,17.54-25.52h0Z"/><ellipse class="cls-5" cx="502.49" cy="419.33" rx="59.96" ry="35.11"/><path class="cls-4" d="M562.45,400.83H442.53v14.72h0c0,9,5.85,18,17.56,24.83,23.42,13.71,61.39,13.71,84.8,0,12-7,17.84-16.31,17.54-25.52h0Z"/><path class="cls-5" d="M552,422.53a48.51,48.51,0,0,1-7.11,5,65.29,65.29,0,0,1-9.56,4.56c-23.25,8.93-54.79,7.41-75.24-4.56-20.23-11.86-23-30.07-8.24-43.64a47,47,0,0,1,8.24-6A63.24,63.24,0,0,1,468,374c23.4-9.69,56-8.39,76.93,3.88C565.63,390,568,408.86,552,422.53Z"/><path class="cls-6" d="M523.3,423.3l-54.39-31.4c-3.05-1.76-2.67-4.84.86-6.88h0c3.53-2,8.86-2.26,11.92-.49l54.38,31.39c3,1.77,2.67,4.85-.86,6.88h0C531.69,424.84,526.35,425.06,523.3,423.3Z"/><path class="cls-4" d="M161.11,384.59H41.19v14.72h0c0,9,5.85,18,17.56,24.83,23.41,13.71,61.38,13.71,84.8,0,12-7,17.84-16.31,17.53-25.52h0Z"/><ellipse class="cls-5" cx="101.15" cy="386.48" rx="59.96" ry="35.11"/><path class="cls-4" d="M161.11,368H41.19V382.7h0c0,9,5.85,18,17.56,24.83,23.41,13.71,61.38,13.71,84.8,0,12-7,17.84-16.31,17.53-25.52h0Z"/><path class="cls-5" d="M150.65,389.68a48.51,48.51,0,0,1-7.11,5,65.29,65.29,0,0,1-9.56,4.56c-23.25,8.93-54.79,7.41-75.24-4.56-20.23-11.86-23-30.07-8.24-43.64a47,47,0,0,1,8.24-6,63.24,63.24,0,0,1,7.87-3.88c23.4-9.69,56-8.39,76.93,3.88C164.28,357.18,166.65,376,150.65,389.68Z"/><path class="cls-4" d="M332.29,284.5H212.37v14.72h0c0,9,5.85,18,17.56,24.83,23.42,13.72,61.39,13.72,84.8,0,12-7,17.84-16.3,17.54-25.52h0Z"/><ellipse class="cls-5" cx="272.33" cy="286.39" rx="59.96" ry="35.11"/><path class="cls-4" d="M332.29,267.89H212.37v14.72h0c0,9,5.85,18,17.56,24.83,23.42,13.71,61.39,13.71,84.8,0,12-7,17.84-16.31,17.54-25.52h0Z"/><path class="cls-5" d="M321.84,289.59a48.51,48.51,0,0,1-7.11,5,65.29,65.29,0,0,1-9.56,4.56c-23.25,8.93-54.79,7.41-75.24-4.56-20.23-11.86-23-30.07-8.24-43.64a47,47,0,0,1,8.24-6,63.24,63.24,0,0,1,7.87-3.88c23.4-9.69,56-8.39,76.93,3.88C335.47,257.09,337.84,275.92,321.84,289.59Z"/><path class="cls-6" d="M122,390.45l-54.38-31.4c-3.06-1.77-2.67-4.85.86-6.88h0c3.52-2,8.86-2.26,11.91-.5l54.38,31.4c3.06,1.76,2.68,4.85-.85,6.88h0C130.34,392,125,392.21,122,390.45Z"/><path class="cls-7" d="M135.66,350.18l0-70.65-67.7-27v70.89h0c-.14,1.35.6,2.66,2.26,3.62l49,28.3c3.38,1.95,9.28,1.71,13.17-.54,2-1.14,3.06-2.58,3.21-4h0A3,3,0,0,0,135.66,350.18Z"/><path class="cls-8" d="M119.28,284.71l-49-28.3c-3.38-2-3-5.36.95-7.61h0c3.89-2.25,9.79-2.49,13.17-.54l49,28.3c3.38,1.95,2.95,5.35-1,7.6h0C128.56,286.41,122.66,286.66,119.28,284.71Z"/><ellipse class="cls-5" cx="95.24" cy="307.41" rx="15.27" ry="26.45" transform="translate(-140.94 88.81) rotate(-30)"/><path class="cls-9" d="M101.15,304a13.07,13.07,0,0,0-5.91-10.23c-3.26-1.88-5.91-.36-5.91,3.41A13.2,13.2,0,0,0,93,305.61v12.88a4.92,4.92,0,0,0,2.24,3.87h0c1.23.72,2.23.14,2.23-1.29V308.19C99.63,308.41,101.15,306.85,101.15,304Z"/><path class="cls-9" d="M122.23,277.62h-8.52V260.86c0-8.77-6.42-19.88-14-24.26-2.89-1.67-5.5-2.09-7.15-1.13s-2.6,3.41-2.6,6.76V259H81.43V242.23c0-6.57,2.44-11.59,6.86-14.14s10-2.15,15.67,1.13c10.24,5.92,18.27,19.81,18.27,31.64Z"/><ellipse class="cls-9" cx="117.98" cy="277.6" rx="4.25" ry="2.46"/><ellipse class="cls-9" cx="85.68" cy="258.91" rx="4.25" ry="2.46"/><path class="cls-7" d="M529,365.15c-.95-10-7.89-21.32-16.32-26.18a16.82,16.82,0,0,0-5.18-2C504,327,497,317.62,488.92,313c-11.68-6.74-21.14-1-21.14,12.91a32.1,32.1,0,0,0,.27,4.11c-7.41-3.22-13.14.75-13.14,9.58,0,9.55,6.71,21.17,15,25.95l57.81,33.37c8.27,4.78,15,.91,15-8.65C542.68,381.21,536.69,370.34,529,365.15Z"/><path class="cls-7" d="M558,380.48c0-9-6-19.9-13.64-25.1-1-10-7.89-21.31-16.32-26.17a16.91,16.91,0,0,0-5.17-2c-3.57-9.93-10.57-19.32-18.63-24-6.31-3.65-12-3.62-15.85-.64l-15.74,10.1v9.12l-13.95,8.49,14.82,12.21c2.74,5.55,7,10.53,11.69,13.26l14.62,8.44L539,399.5s15.13-9.58,15.82-10.19h0C556.79,387.52,558,384.51,558,380.48Z"/><path class="cls-5" d="M469.89,361.74c-6.46-3.72-11.71-12.83-11.71-20.28,0-6.82,4.41-10,10.26-7.49l3.35,1.45-.52-4.14a28.67,28.67,0,0,1-.22-3.52c0-11.76,8-16.7,17.87-11,6.57,3.79,12.6,11.56,15.73,20.28l1.28,3.58,2.64.51a13.65,13.65,0,0,1,4.15,1.62c6.68,3.86,12.3,12.87,13.08,21l.3,3.23,2.65,1.8c6,4.06,10.66,12.68,10.66,19.62,0,7.46-5.25,10.49-11.71,6.76Z"/><polyline class="cls-10" points="485.16 348.77 488.52 356.09 502.56 346.72"/><path class="cls-10" d="M502.38,356.09a19.27,19.27,0,0,1,.18,2.6c0,8.05-5.65,11.31-12.62,7.29s-12.62-13.81-12.62-21.86,5.65-11.31,12.62-7.28a22.59,22.59,0,0,1,5.84,5"/><path class="cls-7" d="M104.89,35.62,44.39.7A3.77,3.77,0,0,0,40.66.35h0L29.55,6.72l9,16.78V79.15c0,4.28,2.6,9.26,5.81,11.11L88,115.46l9,16.67,11.18-6.41c1.53-.51,2.53-2.28,2.53-4.93V46.74C110.71,42.45,108.1,37.48,104.89,35.62Z"/><path class="cls-7" d="M93.7,131.6,33.21,96.67c-3.21-1.85-5.82-6.83-5.82-11.11V11.5c0-4.28,2.61-6.25,5.82-4.39L93.7,42c3.22,1.86,5.82,6.83,5.82,11.12V127.2C99.52,131.48,96.92,133.45,93.7,131.6Z"/><path class="cls-5" d="M32.81,83.42V19.89c0-3.73,2.27-5.45,5.07-3.83L89,45.59c2.8,1.61,5.08,6,5.08,9.7v63.52c0,3.74-2.28,5.45-5.08,3.84L37.88,93.12C35.08,91.5,32.81,87.15,32.81,83.42Z"/><path class="cls-11" d="M44,57.08V50c0-9.6,5.13-14.86,12.39-14"/><path class="cls-11" d="M49.1,83.39C45.9,77.49,44,71,44,65.05"/><path class="cls-11" d="M73.66,102a17,17,0,0,1-9.93-2.65h0a37.23,37.23,0,0,1-10.68-9.78"/><path class="cls-11" d="M83.52,75.61V87.89c0,6.54-2.38,11.06-6.19,13"/><path class="cls-11" d="M63.73,38.62h0C73,44,80.72,55.72,82.9,66.86"/><path class="cls-11" d="M78.11,84.77c0,9.15-6.45,12.87-14.38,8.3a24.75,24.75,0,0,1-5.4-4.34"/><line class="cls-11" x1="78.11" y1="77.9" x2="78.11" y2="79.34"/><path class="cls-11" d="M72.69,53.67c3.3,4.95,5.42,10.85,5.42,16.09V77.9"/><path class="cls-11" d="M51.78,45.35c2.59-3,7-3.35,11.95-.48a21.55,21.55,0,0,1,2.7,1.85"/><path class="cls-11" d="M54.21,83.39c-3-4.75-4.85-10.28-4.85-15.22v-15a17.43,17.43,0,0,1,.17-2.47"/><path class="cls-11" d="M66.43,87.89a9.12,9.12,0,0,1-2.7-1.08C58.79,84,54.78,77,54.78,71.3V59"/><path class="cls-11" d="M72.69,71.9v9.74c0,2.68-.89,4.61-2.34,5.61"/><path class="cls-11" d="M55.34,53c1.27-3.19,4.55-4.1,8.39-1.89,4.72,2.72,8.59,9.19,8.94,14.73"/><path class="cls-11" d="M60.19,59.42c0-2.25,1.59-3.17,3.54-2a7.81,7.81,0,0,1,3.54,6.13v4.74"/><path class="cls-11" d="M67.27,73.77v4.75c0,2.25-1.58,3.17-3.54,2a7.85,7.85,0,0,1-3.54-6.13V64"/><polygon class="cls-12" points="170.1 230.97 148.55 218.52 148.55 184.6 170.1 197.05 170.1 230.97"/><polygon class="cls-12" points="193.02 131.55 171.46 119.1 171.46 85.19 193.02 97.63 193.02 131.55"/><polygon class="cls-12" points="337.32 95.09 315.76 82.64 315.76 48.72 337.32 61.17 337.32 95.09"/><polygon class="cls-12" points="227.63 301.1 206.07 288.65 206.07 254.74 227.63 267.19 227.63 301.1"/><polygon class="cls-12" points="371.47 194.59 349.91 207.04 349.91 240.96 371.47 228.51 371.47 194.59"/><polygon class="cls-12" points="315.76 261.32 294.2 273.77 294.2 307.68 315.76 295.24 315.76 261.32"/><polygon class="cls-12" points="365.78 122.5 344.22 134.94 344.22 168.86 365.78 156.41 365.78 122.5"/><polygon class="cls-12" points="246.23 26.72 224.67 39.17 224.67 73.09 246.23 60.64 246.23 26.72"/><polygon class="cls-7" points="274.07 259.74 274.07 141.37 342.42 180.82 274.07 259.74"/><polygon class="cls-9" points="205.72 180.82 274.06 141.36 274.07 141.36 274.07 259.74 205.72 180.82"/><polygon class="cls-13" points="205.72 180.82 274.07 220.38 274.07 141.37 205.72 180.82"/><polygon class="cls-14" points="342.06 180.82 273.71 141.26 273.71 220.27 342.06 180.82"/><ellipse class="cls-15" cx="273.96" cy="183.45" rx="34.17" ry="19.73"/><ellipse class="cls-6" cx="273.96" cy="276.04" rx="17.6" ry="10.16"/><circle class="cls-5" cx="273.89" cy="158.89" r="38.44"/><polygon class="cls-9" points="273.89 62.45 273.89 180.82 205.54 141.37 273.89 62.45"/><polygon class="cls-7" points="342.24 141.37 273.9 180.83 273.89 180.83 273.89 62.45 342.24 141.37"/></g></g></g></svg>