<svg xmlns="http://www.w3.org/2000/svg" viewBox="0 0 255.6687 344.1741"><defs><style>.cls-1{fill:#f9dbab;}.cls-2,.cls-3{fill:#fff;}.cls-3{stroke:#d1d3d4;stroke-miterlimit:10;stroke-width:0.9607px;}.cls-4,.cls-9{fill:#e6e7e8;}.cls-5{fill:#f5a682;}.cls-6{fill:#b6b3b3;opacity:0.7;}.cls-7{fill:#29b574;}.cls-8{fill:none;stroke:#00a79c;stroke-linecap:round;stroke-linejoin:round;stroke-width:4.1174px;}.cls-9{opacity:0.25;}</style></defs><title>phone_10</title><g id="Layer_2" data-name="Layer 2"><g id="PHONE"><path class="cls-1" d="M69.5386,81.0684S15.9874,40.0785,3.0122,61.3005,22.5416,101.5872,33.0278,103.86s38.8211,22.4407,38.8211,22.4407Z"/><rect class="cls-2" x="38.1969" width="169.4485" height="291.2219" rx="20.8186"/><rect class="cls-3" x="46.1585" y="10.7893" width="153.5253" height="254.5462" rx="18.5265"/><rect class="cls-4" x="66.76" y="117.7396" width="116.6073" height="47.0258" rx="4.3503"/><rect class="cls-4" x="66.76" y="178.5247" width="116.6073" height="11.9169" rx="5.9585"/><rect class="cls-4" x="66.76" y="202.9084" width="116.6073" height="11.9169" rx="5.9585"/><rect class="cls-4" x="122.2271" y="227.2922" width="61.1402" height="11.9169" rx="5.9585"/><rect class="cls-4" x="64.4568" y="60.8404" width="38.7478" height="38.7478" rx="19.3739"/><rect class="cls-4" x="119.9166" y="66.3455" width="65.764" height="10.5625" rx="5.2812"/><path class="cls-1" d="M249.0125,300.0441c-15.96,36.02-35.08,44.13-35.08,44.13s-72.97-11.35-106.99-4.98l-33.37-46.35h-.01l-1.13-1.58a.14.14,0,0,0-.03-.04l70.19-.01s36.18-2.68,56.06-15.14c6.16-3.86,7.95-5.53,7-10.74-4.24-23.32,3.23-76.51,1.11-88.84-.73-4.25-1.87-11.85-2.69-20.56-1.58-16.52-2.02-37.06,3.57-46.4,15.19-25.36,44.29,36.08,40.66,96.54C248.3026,206.0741,264.3925,265.3341,249.0125,300.0441Z"/><path class="cls-5" d="M213.9425,300.0441s-8.95-.43-18.5,0c-9.54.43-108.57-6.97-121.87-7.2h-.01l-1.13-1.58a.14.14,0,0,0-.03-.04l70.19-.01s36.18-2.68,56.06-15.14c6.16-3.86,7.95-5.53,7-10.74-4.24-23.32,3.23-76.51,1.11-88.84-.73-4.25-1.87-11.85-2.69-20.56,4.04,10.17,9.47,25.79,9.86,37.19C214.5725,211.4341,206.4425,290.0741,213.9425,300.0441Z"/><path class="cls-1" d="M82.5526,211.5441a10.9281,10.9281,0,0,1-1.08.6c-10.87,5.19-44.93.83-52.86-12.99a41.4068,41.4068,0,0,1-3.8-8.57c-3.94-13.1,3.21-20.11,7.13-21.87,8.63-3.89,2.2,3.8,19.11,12.07,10.3,5.04,28.88,5.3,33.21,8.69C89.4225,193.5041,90.1226,206.6541,82.5526,211.5441Z"/><path class="cls-1" d="M71.8425,171.0541a13.86,13.86,0,0,1-2.64,1.34c-11.28,4.43-36.37,1.21-42.4-12.71a35.9784,35.9784,0,0,1-3.11-12.63c-.56-12.19,6.8-19.47,10.55-20.68,9.02-2.88,4.69,5.44,20.55,15.57,9.67,6.17,16.9-1.94,22.91,12.62C80.0125,160.1541,76.5325,167.9241,71.8425,171.0541Z"/><path class="cls-1" d="M63.4225,241.6841a26.18,26.18,0,0,1-4.57,2.82c-9.48,4.61-21.04,3.08-28.17-7.46-5.45-8.07-6.02-14.13-4.56-18.48a14.2578,14.2578,0,0,1,7.57-8.16c9.89-4.58,2.24,3.26,20.64,9,11.22,3.5,14.06,3.35,16.27,7.74C73.0325,231.9741,68.4525,237.8341,63.4225,241.6841Z"/><path class="cls-6" d="M187.073,108.3236a273.8667,273.8667,0,0,1-34.33,31.2428c-19.1619,14.421-42.3469,26.4486-58.3932,16.8684-32.0927-19.16-1.6405-104.4493-1.6405-104.4493,33.3105,23.4047,66.0044-3.9328,66.6925-4.51l.0037-.0062.01-.0025-.0073.0124c-.0256.1271-.2233,1.0894-.4368,2.6955C157.6957,59.8147,155.876,92.7129,187.073,108.3236Z"/><path class="cls-5" d="M69.2025,172.3941c-11.28,4.43-36.37,1.21-42.4-12.71a35.9784,35.9784,0,0,1-3.11-12.63C30.5169,165.047,50.3126,171.4741,69.2025,172.3941Z"/><path class="cls-5" d="M81.4725,212.1441c-10.87,5.19-44.93.83-52.86-12.99a41.4068,41.4068,0,0,1-3.8-8.57A96.4431,96.4431,0,0,0,81.4725,212.1441Z"/><path class="cls-5" d="M58.8525,244.5041c-9.48,4.61-21.04,3.08-28.17-7.46-5.45-8.07-6.02-14.13-4.56-18.48C34.8055,241.7651,45.8068,245.4952,58.8525,244.5041Z"/><path class="cls-7" d="M190.719,94.6782a292.46,292.46,0,0,1-36.6608,33.3636c-20.4626,15.4-45.2213,28.2438-62.3568,18.0134C57.43,125.5944,89.95,34.516,89.95,34.516c35.5716,24.9934,70.4847-4.2,71.22-4.8164l.0039-.0066.0106-.0026-.0079.0132c-.0273.1357-.2384,1.1633-.4664,2.8784C159.3476,42.8766,157.4043,78.0079,190.719,94.6782Z"/><circle class="cls-2" cx="127.8113" cy="85.5802" r="25.2494"/><polyline class="cls-8" points="115.707 81.457 118.956 95.489 147.824 88.541"/><path class="cls-9" d="M91.7014,146.0552C57.43,125.5944,89.95,34.516,89.95,34.516c35.5716,24.9934,70.4847-4.2,71.22-4.8164l.0118-.02.0027.0106-.0079.0132a2.686,2.686,0,0,1-.4664,2.8784C140.5491,52.5932,109.8467,84.2957,91.7014,146.0552Z"/></g></g></svg>