<svg xmlns="http://www.w3.org/2000/svg" width="351.906" height="631.686" viewBox="0 0 351.906 631.686">
  <g id="グループ_11" data-name="グループ 11" transform="translate(-576.862 -3937.032)">
    <g id="パス_4" data-name="パス 4" transform="translate(576.862 3937.032)" fill="#fff">
      <path d="M 333.7669982910156 630.6856079101562 L 18.13949775695801 630.6856079101562 C 8.688747406005859 630.6856079101562 0.999997079372406 620.773193359375 0.999997079372406 608.5892333984375 L 0.999997079372406 23.09638786315918 C 0.999997079372406 10.91238689422607 8.688747406005859 0.9999706149101257 18.13949775695801 0.9999706149101257 L 333.7669982910156 0.9999706149101257 C 343.2177429199219 0.9999706149101257 350.906494140625 10.91238689422607 350.906494140625 23.09638786315918 L 350.906494140625 608.5892333984375 C 350.906494140625 620.773193359375 343.2177429199219 630.6856079101562 333.7669982910156 630.6856079101562 Z" stroke="none"/>
      <path d="M 18.13949584960938 2 C 13.92123413085938 2 9.924652099609375 4.13079833984375 6.885833740234375 8.00006103515625 C 5.36273193359375 9.9393310546875 4.16424560546875 12.20587158203125 3.323486328125 14.7366943359375 C 2.445343017578125 17.3804931640625 2 20.19305419921875 2 23.09637451171875 L 2 608.5892333984375 C 2 611.4925537109375 2.445343017578125 614.3051147460938 3.323486328125 616.9489135742188 C 4.16424560546875 619.479736328125 5.36273193359375 621.7462768554688 6.885833740234375 623.685546875 C 9.924652099609375 627.5548095703125 13.92123413085938 629.6856079101562 18.13949584960938 629.6856079101562 L 333.7669982910156 629.6856079101562 C 337.9852600097656 629.6856079101562 341.9818420410156 627.5548095703125 345.0206604003906 623.685546875 C 346.5437622070312 621.7462768554688 347.7422485351562 619.479736328125 348.5830078125 616.9489135742188 C 349.4611511230469 614.3051147460938 349.906494140625 611.4925537109375 349.906494140625 608.5892333984375 L 349.906494140625 23.09637451171875 C 349.906494140625 20.19305419921875 349.4611511230469 17.3804931640625 348.5830078125 14.7366943359375 C 347.7422485351562 12.20587158203125 346.5437622070312 9.9393310546875 345.0206604003906 8.00006103515625 C 341.9818420410156 4.13079833984375 337.9852600097656 2 333.7669982910156 2 L 18.13949584960938 2 M 18.13949584960938 0 L 333.7669982910156 0 C 343.78515625 0 351.906494140625 10.340576171875 351.906494140625 23.09637451171875 L 351.906494140625 608.5892333984375 C 351.906494140625 621.3450317382812 343.78515625 631.6856079101562 333.7669982910156 631.6856079101562 L 18.13949584960938 631.6856079101562 C 8.121337890625 631.6856079101562 0 621.3450317382812 0 608.5892333984375 L 0 23.09637451171875 C 0 10.340576171875 8.121337890625 0 18.13949584960938 0 Z" stroke="none" fill="#29b574"/>
    </g>
    <g id="グループ_7" data-name="グループ 7" transform="translate(614.048 4160.949)">
      <g id="パス_5" data-name="パス 5" fill="#fff">
        <path d="M 110.6510162353516 40.72087097167969 L 20.86043167114258 40.72087097167969 C 18.1788501739502 40.72087097167969 15.57801342010498 40.19590759277344 13.13015842437744 39.16054534912109 C 10.76532173156738 38.16030883789062 8.641249656677246 36.7281608581543 6.816976547241211 34.90388870239258 C 4.992722034454346 33.07961654663086 3.560558319091797 30.95556259155273 2.560322046279907 28.59070777893066 C 1.524958372116089 26.14285278320312 0.9999947547912598 23.54201698303223 0.9999947547912598 20.86043548583984 C 0.9999947547912598 18.17885398864746 1.524958372116089 15.57801723480225 2.560322046279907 13.13016319274902 C 3.560558319091797 10.76530838012695 4.992722034454346 8.641253471374512 6.816976547241211 6.816980838775635 C 8.641249656677246 4.992708206176758 10.76532173156738 3.5605628490448 13.13015842437744 2.560326337814331 C 15.57801342010498 1.524962782859802 18.1788501739502 0.9999991059303284 20.86043167114258 0.9999991059303284 L 110.6510162353516 0.9999991059303284 C 113.3325958251953 0.9999991059303284 115.9334335327148 1.524962782859802 118.3812866210938 2.560326337814331 C 120.7461242675781 3.5605628490448 122.8701934814453 4.992708206176758 124.694465637207 6.816980838775635 C 126.5187225341797 8.641253471374512 127.9508819580078 10.76530838012695 128.9511260986328 13.13016319274902 C 129.9864807128906 15.57801723480225 130.5114440917969 18.17885398864746 130.5114440917969 20.86043548583984 C 130.5114440917969 23.54201698303223 129.9864807128906 26.14285278320312 128.9511260986328 28.59070777893066 C 127.9508819580078 30.95556259155273 126.5187225341797 33.07961654663086 124.694465637207 34.90388870239258 C 122.8701934814453 36.7281608581543 120.7461242675781 38.16030883789062 118.3812866210938 39.16054534912109 C 115.9334335327148 40.19590759277344 113.3325958251953 40.72087097167969 110.6510162353516 40.72087097167969 Z" stroke="none"/>
        <path d="M 20.86042785644531 2 C 15.8226318359375 2 11.08635711669922 3.961818695068359 7.524085998535156 7.524089813232422 C 3.961830139160156 11.08636283874512 2 15.82263565063477 2 20.86043548583984 C 2 25.89823532104492 3.961830139160156 30.63450813293457 7.524085998535156 34.19678115844727 C 11.08635711669922 37.75905227661133 15.8226318359375 39.72087097167969 20.86042785644531 39.72087097167969 L 110.6510162353516 39.72087097167969 C 115.6888122558594 39.72087097167969 120.4250869750977 37.75905227661133 123.9873580932617 34.19678115844727 C 127.5496139526367 30.63450813293457 129.5114440917969 25.89823532104492 129.5114440917969 20.86043548583984 C 129.5114440917969 15.82263565063477 127.5496139526367 11.08636283874512 123.9873580932617 7.524089813232422 C 120.4250869750977 3.961818695068359 115.6888122558594 2 110.6510162353516 2 L 20.86042785644531 2 M 20.86042785644531 0 L 110.6510162353516 0 C 122.1719055175781 0 131.5114440917969 9.339527130126953 131.5114440917969 20.86043548583984 C 131.5114440917969 32.38134384155273 122.1719055175781 41.72087097167969 110.6510162353516 41.72087097167969 L 20.86042785644531 41.72087097167969 C 9.33953857421875 41.72087097167969 0 32.38134384155273 0 20.86043548583984 C 0 9.339527130126953 9.33953857421875 0 20.86042785644531 0 Z" stroke="none" fill="#29b574"/>
      </g>
      <text id="_2人ユーザー" data-name="2人ユーザー" transform="translate(23.181 25.238)" fill="#29b574" font-size="14" font-family="TsukuARdGothicStd-B, FOT-TsukuARdGothic Std" letter-spacing="0.1em"><tspan x="0" y="0">2人ユーザー</tspan></text>
    </g>
    <text id="月額_3000円_" data-name="月額 
3000円~" transform="translate(614.353 4043.847)" fill="#121212" font-size="18" font-family="TsukuARdGothicStd-B, FOT-TsukuARdGothic Std" letter-spacing="0.1em"><tspan x="0" y="0">月額</tspan><tspan y="0" font-size="35"> </tspan><tspan font-size="35"><tspan x="0" y="33">3000円~</tspan></tspan></text>
    <text id="ベイシック" transform="translate(614.353 4132.741)" fill="#29b574" font-size="36" font-family="TsukuARdGothicStd-B, FOT-TsukuARdGothic Std" letter-spacing="0.1em"><tspan x="0" y="0">ベイシック</tspan></text>
    <g id="グループ_9" data-name="グループ 9" transform="translate(614.201 4242.729)">
      <text id="マルチウェア_フィッシング対策" data-name="マルチウェア・フィッシング対策" transform="translate(33.864 16.903)" fill="#121212" font-size="14" font-family="TsukuARdGothicStd-B, FOT-TsukuARdGothic Std" letter-spacing="0.1em"><tspan x="0" y="0">マルチウェア・フィッシング対策</tspan></text>
      <text id="不正サイトブロック" transform="translate(33.864 54.227)" fill="#121212" font-size="14" font-family="TsukuARdGothicStd-B, FOT-TsukuARdGothic Std" letter-spacing="0.1em"><tspan x="0" y="0">不正サイトブロック</tspan></text>
      <text id="ID_パスワード管理" data-name="ID・パスワード管理" transform="translate(33.864 92.756)" fill="#121212" font-size="14" font-family="TsukuARdGothicStd-B, FOT-TsukuARdGothic Std" letter-spacing="0.1em"><tspan x="0" y="0">ID・パスワード管理</tspan></text>
      <text id="迷惑メール対策" transform="translate(33.864 130.081)" fill="#121212" font-size="14" font-family="TsukuARdGothicStd-B, FOT-TsukuARdGothic Std" letter-spacing="0.1em"><tspan x="0" y="0">迷惑メール対策</tspan></text>
      <text id="無料PROTEGクラウド200GB" transform="translate(33.864 168.61)" fill="#121212" font-size="14" font-family="TsukuARdGothicStd-B, FOT-TsukuARdGothic Std" letter-spacing="0.1em"><tspan x="0" y="0">無料PROTEGクラウド200GB</tspan></text>
      <text id="_24時間サポートサービス" data-name="24時間サポートサービス" transform="translate(33.864 204.731)" fill="#121212" font-size="14" font-family="TsukuARdGothicStd-B, FOT-TsukuARdGothic Std" letter-spacing="0.1em"><tspan x="0" y="0">24時間サポートサービス</tspan></text>
      <path id="Icon_awesome-check-circle" data-name="Icon awesome-check-circle" d="M24.632,12.6A12.035,12.035,0,1,1,12.6.563,12.035,12.035,0,0,1,24.632,12.6ZM11.205,18.969l8.929-8.929a.776.776,0,0,0,0-1.1l-1.1-1.1a.776.776,0,0,0-1.1,0l-7.282,7.282-3.4-3.4a.777.777,0,0,0-1.1,0l-1.1,1.1a.776.776,0,0,0,0,1.1l5.047,5.047A.776.776,0,0,0,11.205,18.969Z" transform="translate(-0.563 -0.563)" fill="#55d0c8" opacity="0.996"/>
      <path id="Icon_awesome-check-circle-2" data-name="Icon awesome-check-circle" d="M24.632,12.6A12.035,12.035,0,1,1,12.6.563,12.035,12.035,0,0,1,24.632,12.6ZM11.205,18.969l8.929-8.929a.776.776,0,0,0,0-1.1l-1.1-1.1a.776.776,0,0,0-1.1,0l-7.282,7.282-3.4-3.4a.777.777,0,0,0-1.1,0l-1.1,1.1a.776.776,0,0,0,0,1.1l5.047,5.047A.776.776,0,0,0,11.205,18.969Z" transform="translate(-0.563 37.53)" fill="#55d0c8" opacity="0.996"/>
      <path id="Icon_awesome-check-circle-3" data-name="Icon awesome-check-circle" d="M24.632,12.6A12.035,12.035,0,1,1,12.6.563,12.035,12.035,0,0,1,24.632,12.6ZM11.205,18.969l8.929-8.929a.776.776,0,0,0,0-1.1l-1.1-1.1a.776.776,0,0,0-1.1,0l-7.282,7.282-3.4-3.4a.777.777,0,0,0-1.1,0l-1.1,1.1a.776.776,0,0,0,0,1.1l5.047,5.047A.776.776,0,0,0,11.205,18.969Z" transform="translate(-0.563 75.623)" fill="#55d0c8" opacity="0.996"/>
      <path id="Icon_awesome-check-circle-4" data-name="Icon awesome-check-circle" d="M24.632,12.6A12.035,12.035,0,1,1,12.6.563,12.035,12.035,0,0,1,24.632,12.6ZM11.205,18.969l8.929-8.929a.776.776,0,0,0,0-1.1l-1.1-1.1a.776.776,0,0,0-1.1,0l-7.282,7.282-3.4-3.4a.777.777,0,0,0-1.1,0l-1.1,1.1a.776.776,0,0,0,0,1.1l5.047,5.047A.776.776,0,0,0,11.205,18.969Z" transform="translate(-0.563 113.716)" fill="#55d0c8" opacity="0.996"/>
      <path id="Icon_awesome-check-circle-5" data-name="Icon awesome-check-circle" d="M24.632,12.6A12.035,12.035,0,1,1,12.6.563,12.035,12.035,0,0,1,24.632,12.6ZM11.205,18.969l8.929-8.929a.776.776,0,0,0,0-1.1l-1.1-1.1a.776.776,0,0,0-1.1,0l-7.282,7.282-3.4-3.4a.777.777,0,0,0-1.1,0l-1.1,1.1a.776.776,0,0,0,0,1.1l5.047,5.047A.776.776,0,0,0,11.205,18.969Z" transform="translate(-0.563 151.809)" fill="#55d0c8" opacity="0.996"/>
      <path id="Icon_awesome-check-circle-6" data-name="Icon awesome-check-circle" d="M24.632,12.6A12.035,12.035,0,1,1,12.6.563,12.035,12.035,0,0,1,24.632,12.6ZM11.205,18.969l8.929-8.929a.776.776,0,0,0,0-1.1l-1.1-1.1a.776.776,0,0,0-1.1,0l-7.282,7.282-3.4-3.4a.777.777,0,0,0-1.1,0l-1.1,1.1a.776.776,0,0,0,0,1.1l5.047,5.047A.776.776,0,0,0,11.205,18.969Z" transform="translate(-0.563 188.088)" fill="#55d0c8" opacity="0.996"/>
    </g>
  </g>
</svg>
