<svg xmlns="http://www.w3.org/2000/svg" viewBox="0 0 79.43 79.42"><defs><style>.cls-1{fill:#29b574;}.cls-2{fill:none;stroke:#bce1d4;stroke-miterlimit:10;stroke-width:5px;}.cls-3{fill:#fdfeff;}.cls-4{fill:#00a79c;}</style></defs><title>support0</title><g id="Layer_2" data-name="Layer 2"><g id="ICON"><path class="cls-1" d="M79.43,39.71A39.72,39.72,0,1,1,39.72,0,39.71,39.71,0,0,1,79.43,39.71Z"/><path class="cls-2" d="M32.5,64.4A14.58,14.58,0,0,1,17.92,49.82h0"/><rect class="cls-3" x="31.05" y="59.4" width="18.9" height="9.99" rx="4.99"/><path class="cls-2" d="M17.92,27.45h0A14.57,14.57,0,0,1,32.5,12.88H47.08A14.57,14.57,0,0,1,61.65,27.45h0"/><path class="cls-4" d="M74.12,39.25A13.68,13.68,0,0,1,61.65,52.89q-.6.06-1.23.06H55.55V25.55h4.87q.63,0,1.23.06A13.7,13.7,0,0,1,74.12,39.25Z"/><path class="cls-3" d="M74.12,39.25A13.68,13.68,0,0,1,61.65,52.89V25.61A13.7,13.7,0,0,1,74.12,39.25Z"/><path class="cls-4" d="M6.35,25.54h4.86a13.7,13.7,0,0,1,13.7,13.7v0a13.7,13.7,0,0,1-13.7,13.7H6.35a0,0,0,0,1,0,0V25.54A0,0,0,0,1,6.35,25.54Z" transform="translate(31.26 78.49) rotate(-180)"/><path class="cls-3" d="M6.32,39.25A13.68,13.68,0,0,1,18.79,25.61V52.89A13.7,13.7,0,0,1,6.32,39.25Z"/></g></g></svg>