<svg xmlns="http://www.w3.org/2000/svg" viewBox="0 0 403.8258 264.7446"><defs><style>.cls-1{fill:#fff;}.cls-2{fill:#f5a682;}.cls-3{fill:#f9dbab;}.cls-4{fill:#bce1d4;}.cls-5,.cls-9{fill:#e6e7e8;}.cls-6{fill:#b6b3b3;opacity:0.7;}.cls-7{fill:#00a79c;}.cls-8{fill:#29b574;}.cls-9{opacity:0.25;}</style></defs><title>web0</title><g id="Layer_2" data-name="Layer 2"><g id="BROWSER"><rect class="cls-1" width="403.8258" height="264.7446" rx="11.6476"/><circle class="cls-2" cx="15.2894" cy="13.5324" r="4.9894"/><circle class="cls-3" cx="30.5718" cy="13.5324" r="4.9894"/><circle class="cls-4" cx="45.8542" cy="13.5324" r="4.9894"/><rect class="cls-5" x="20.2789" y="229.4415" width="189.9673" height="13.4695" rx="6.7347"/><rect class="cls-5" x="20.2789" y="202.9681" width="189.9673" height="13.4695" rx="6.7347"/><rect class="cls-5" x="20.2789" y="176.4947" width="189.9673" height="13.4695" rx="6.7347"/><rect class="cls-5" x="20.2789" y="150.0212" width="189.9673" height="13.4695" rx="6.7347"/><rect class="cls-5" x="20.2789" y="123.5478" width="189.9673" height="13.4695" rx="6.7347"/><rect class="cls-5" x="229.2822" y="44.1219" width="152.8514" height="54.7977" rx="5.3765"/><rect class="cls-5" x="20.2789" y="44.1219" width="152.8514" height="27.3988" rx="3.8018"/><rect class="cls-5" x="252.5962" y="130.4064" width="38.7478" height="38.7478" rx="19.3739"/><rect class="cls-5" x="252.5962" y="202.9697" width="38.7478" height="38.7478" rx="19.3739"/><rect class="cls-5" x="312.9582" y="135.9115" width="65.764" height="10.5625" rx="5.2812"/><rect class="cls-5" x="312.9582" y="206.5145" width="65.764" height="10.5625" rx="5.2812"/><polygon class="cls-5" points="320.992 159.991 322.299 164.012 326.526 164.012 323.106 166.497 324.413 170.518 320.992 168.033 317.572 170.518 318.879 166.497 315.458 164.012 319.686 164.012 320.992 159.991"/><polygon class="cls-5" points="336.282 159.991 337.589 164.012 341.816 164.012 338.396 166.497 339.702 170.518 336.282 168.033 332.862 170.518 334.168 166.497 330.748 164.012 334.976 164.012 336.282 159.991"/><polygon class="cls-5" points="351.572 159.991 352.878 164.012 357.106 164.012 353.686 166.497 354.992 170.518 351.572 168.033 348.152 170.518 349.458 166.497 346.038 164.012 350.265 164.012 351.572 159.991"/><polygon class="cls-5" points="320.992 229.441 322.299 233.462 326.526 233.462 323.106 235.947 324.413 239.968 320.992 237.483 317.572 239.968 318.879 235.947 315.458 233.462 319.686 233.462 320.992 229.441"/><polygon class="cls-5" points="336.282 229.441 337.589 233.462 341.816 233.462 338.396 235.947 339.702 239.968 336.282 237.483 332.862 239.968 334.168 235.947 330.748 233.462 334.976 233.462 336.282 229.441"/><polygon class="cls-5" points="351.572 229.441 352.878 233.462 357.106 233.462 353.686 235.947 354.992 239.968 351.572 237.483 348.152 239.968 349.458 235.947 346.038 233.462 350.265 233.462 351.572 229.441"/><polygon class="cls-5" points="365.361 229.441 366.667 233.462 370.895 233.462 367.475 235.947 368.781 239.968 365.361 237.483 361.941 239.968 363.247 235.947 359.827 233.462 364.055 233.462 365.361 229.441"/><path class="cls-6" d="M284.9629,101.8169l-.001.0026-18.49-6.6325,6.5138-18.1579a44.1412,44.1412,0,0,0-26.62-56.3949,43.6231,43.6231,0,0,0-27.9025-.6183,42.1691,42.1691,0,0,0-5.806,2.2512,45.36,45.36,0,0,0-5.8281,3.3031,43.7746,43.7746,0,0,0-16.8485,21.6859L183.4668,65.414l-20.7854-7.4518a9.1981,9.1981,0,0,0-11.7754,5.55l-41.5885,115.94.0036.0013-1.6884,4.5725c-1.2706,2.4831-.2418,5.9136,4.3056,7.6932l90.885,32.14,41.2314,14.58a4.9318,4.9318,0,0,0,5.3071-3.4709l.0027.0019,42.0019-119.2S296.5531,105.9738,284.9629,101.8169ZM204.0982,52.3205c.0455-.1444.0976-.2673.14-.3918.1346-.3622.279-.7227.4316-1.0716a28.8642,28.8642,0,0,1,12.5029-14.0417c.6212-.3581,1.2471-.6849,1.8891-.9885a29.096,29.096,0,0,1,39.8069,36.138l-6.5138,18.1579L214.1375,76.4164l-16.5533-5.9382Z"/><path class="cls-7" d="M238.26,4.4815a43.6217,43.6217,0,0,0-27.9025-.6183,42.1863,42.1863,0,0,0-5.806,2.2511,45.3785,45.3785,0,0,0-5.8281,3.3031,43.7736,43.7736,0,0,0-16.8484,21.686l-6.5139,18.1578-19.42,54.1294,45.5242,16.3277,37.491,13.447,19.4105-54.1311,6.5139-18.1579A44.1412,44.1412,0,0,0,238.26,4.4815Zm12.5027,51.3306L244.2491,73.97l-14.3462,40.0135-27.2418-9.7716-27.5384-9.8745,14.3561-40.012,6.5139-18.1577c.0456-.1443.0976-.2672.14-.3918.1346-.3622.279-.7227.4316-1.0716a28.8637,28.8637,0,0,1,12.5029-14.0416c.6213-.3582,1.2471-.6849,1.8891-.9885a29.0959,29.0959,0,0,1,39.8069,36.1379Z"/><path class="cls-7" d="M276.8614,85.6605v.01l-18.49-6.64-14.12-5.06-38.22-13.71-16.55-5.94-14.12-5.06-20.79-7.45a9.1918,9.1918,0,0,0-11.77,5.55l-41.59,115.94-1.67,4.55c-1.3,2.49-.27,5.93,4.29,7.72l90.89,32.13,41.23,14.58a4.91,4.91,0,0,0,5.3-3.47l.01.01,42-119.2S288.4514,89.8206,276.8614,85.6605Z"/><path class="cls-8" d="M283.2614,99.6206l-42,119.2-.01-.01-9.86-6.61.7-1.96-36.55-13.11-84.93-30.46-4.98,4.28-6.27-2.62.18-.48,1.67-4.55,41.59-115.94a9.1918,9.1918,0,0,1,11.77-5.55l20.79,7.45,14.12,5.06,16.55,5.94,38.22,13.71,14.12,5.06,18.49,6.64v-.01C288.4514,89.8206,283.2614,99.6206,283.2614,99.6206Z"/><circle class="cls-1" cx="195.353" cy="126.7471" r="48.1882"/><path class="cls-7" d="M214.3548,122.0312a16.294,16.294,0,1,0-26.25,6.5954l-6.9391,19.3471a6.1876,6.1876,0,1,0,11.6486,4.1779l6.9392-19.347A16.2929,16.2929,0,0,0,214.3548,122.0312Z"/><path class="cls-7" d="M241.2514,218.8106a4.91,4.91,0,0,1-5.3,3.47l-41.23-14.58-90.89-32.13c-4.56-1.79-5.59-5.23-4.29-7.72.97-1.89,3.3-3.23,6.43-2.84a7.603,7.603,0,0,1,1.11.19c3.83,1.19,51.45,18.35,88.47,31.74,15.31,5.53,28.81,10.42,36.64,13.24,4.52,1.65,7.16,2.6,7.16,2.6A5.3586,5.3586,0,0,1,241.2514,218.8106Z"/><path class="cls-9" d="M206.0314,60.2605l-3.37,43.95-1.2,15.51-5.91,77.22-.01.19-.82,10.57-90.89-32.13c-4.56-1.79-5.59-5.23-4.29-7.72l1.67-4.55,41.59-115.94a9.1918,9.1918,0,0,1,11.77-5.55l20.79,7.45,6.51-18.16a43.8131,43.8131,0,0,1,16.85-21.68l-.18,21.4a28.8907,28.8907,0,0,0-1.98,3.88c.06-.28-.03-.02-.43,1.08-.04.12-.09.24-.14.39l-6.51,18.15Z"/></g></g></svg>